<svg width="30" height="30" viewBox="0 0 30 30" fill="none" xmlns="http://www.w3.org/2000/svg">
<g clip-path="url(#clip0_20_1180)">
<path d="M3.55905 6.66699H2V22.667H3.55905V6.66699Z" fill="#004955"/>
<path d="M6.59764 6.66699H5.07812V22.667H6.59764V6.66699Z" fill="#004955"/>
<path d="M8.75689 6.66699H6.91797V22.667H8.75689V6.66699Z" fill="#004955"/>
<path d="M10.689 6.66699H9.76953V22.667H10.689V6.66699Z" fill="#004955"/>
<path d="M14.9807 6.66699H12.582V22.667H14.9807V6.66699Z" fill="#004955"/>
<path d="M17.8355 6.66699H16.1562V22.667H17.8355V6.66699Z" fill="#004955"/>
<path d="M20.6642 6.66699H19.4648V22.667H20.6642V6.66699Z" fill="#004955"/>
<path d="M23.5237 6.66699H21.125V22.667H23.5237V6.66699Z" fill="#004955"/>
<path d="M24.8618 6.66699H24.0625V22.667H24.8618V6.66699Z" fill="#004955"/>
<path d="M27.3479 6.66699H26.668V22.667H27.3479V6.66699Z" fill="#004955"/>
<path d="M28.6682 6.66699H27.9883V22.667H28.6682V6.66699Z" fill="#004955"/>
<path d="M11.969 6.66699H11.2891V22.667H11.969V6.66699Z" fill="#004955"/>
</g>
<defs>
<clipPath id="clip0_20_1180">
<rect width="26.6667" height="16" fill="white" transform="translate(2 6.66699)"/>
</clipPath>
</defs>
</svg>
