<svg width="202" height="30" viewBox="0 0 202 30" fill="none" xmlns="http://www.w3.org/2000/svg">
<g clip-path="url(#clip0_6116_152)">
<g clip-path="url(#clip1_6116_152)">
<path d="M162.684 0.614746H170.139C171.937 0.614746 173.365 2.01764 173.365 3.71143V3.71436C173.365 5.4082 171.937 6.81201 170.139 6.81201H162.684C160.885 6.81184 159.458 5.4081 159.458 3.71436V3.71143C159.458 2.07052 160.798 0.702465 162.517 0.618652L162.684 0.614746Z" stroke="white"/>
<path d="M1.22156 19.9401C1.22156 14.3358 5.94261 9.94751 12.1811 9.94751C16.122 9.94751 18.3337 11.2847 19.5007 12.0794L17.2063 16.2188C16.2972 15.6347 14.9119 14.923 12.8324 14.923C9.36768 14.923 7.02699 17.0135 7.02699 19.9401C7.02699 22.8667 9.32139 24.9571 12.7465 24.9571C14.9549 24.9571 16.2972 24.2454 17.2096 23.6613L19.4611 27.7592C18.2477 28.5124 16.1253 29.9326 12.1844 29.9326C5.81697 29.9326 1.22486 25.5826 1.22486 19.9401H1.22156Z" fill="white"/>
<path d="M20.4397 19.9401C20.4397 14.2528 25.2467 9.94751 31.224 9.94751C37.2014 9.94751 42.0084 14.256 42.0084 19.9401C42.0084 25.6241 37.2014 29.9326 31.224 29.9326C25.2467 29.9326 20.4397 25.6241 20.4397 19.9401ZM36.2922 19.9401C36.2922 17.1794 34.1268 14.923 31.224 14.923C28.3213 14.923 26.1559 17.1826 26.1559 19.9401C26.1559 22.6975 28.3643 24.9571 31.224 24.9571C34.0838 24.9571 36.2922 22.7422 36.2922 19.9401Z" fill="white"/>
<path d="M65.2637 18.9379V29.5592H59.5905V19.6911C59.5905 16.7645 57.8152 14.8816 55.2166 14.8816C52.3569 14.8816 50.5815 16.972 50.5815 19.522V29.5592H44.9083V10.3241H48.9814L49.1963 13.5858C50.3666 11.5784 52.8792 9.94751 56.5159 9.94751C61.8452 9.94751 65.267 13.4613 65.267 18.9379H65.2637Z" fill="white"/>
<path d="M67.8922 19.9401C67.8922 14.3358 72.6133 9.94751 78.8518 9.94751C82.7926 9.94751 85.0044 11.2847 86.1714 12.0794L83.877 16.2188C82.9678 15.6347 81.5826 14.923 79.5031 14.923C76.0383 14.923 73.6976 17.0135 73.6976 19.9401C73.6976 22.8667 75.992 24.9571 79.4171 24.9571C81.6256 24.9571 82.9678 24.2454 83.8803 23.6613L86.1317 27.7592C84.9184 28.5124 82.7959 29.9326 78.8551 29.9326C72.4876 29.9326 67.8955 25.5826 67.8955 19.9401H67.8922Z" fill="white"/>
<path d="M107.386 21.4469H92.744C93.3953 23.6618 95.6037 25.3373 98.7213 25.3373C101.624 25.3373 103.138 24.0416 104.004 23.3714L106.345 27.3033C105.132 28.3501 102.662 29.9363 98.113 29.9363C91.7885 29.9363 87.1534 25.5863 87.1534 19.9437C87.1534 14.3012 91.4414 9.95117 97.551 9.95117C103.661 9.95117 107.469 14.215 107.469 19.9884C107.469 20.7001 107.383 21.4533 107.383 21.4533L107.386 21.4469ZM92.7903 17.9331H102.06C101.799 15.7597 100.024 14.2948 97.7725 14.2948C95.3029 14.2948 93.4416 15.549 92.7903 17.9331Z" fill="white"/>
<path d="M130.677 18.9379V29.5592H125.004V19.6911C125.004 16.7645 123.229 14.8816 120.63 14.8816C117.771 14.8816 115.995 16.972 115.995 19.522V29.5592H110.322V10.3241H114.395L114.61 13.5858C115.78 11.5784 118.293 9.94751 121.93 9.94751C127.259 9.94751 130.681 13.4613 130.681 18.9379H130.677Z" fill="white"/>
<path d="M164.67 10.1135L164.194 15.5486C163.632 15.3379 163.11 15.172 162.201 15.172C159.04 15.172 157.09 17.1794 157.09 19.8986V29.5592H151.417V10.3241H156.138L156.356 14.0869C157.05 11.7443 159.516 9.94751 162.941 9.94751C163.546 9.94751 164.155 9.989 164.674 10.1135H164.67Z" fill="white"/>
<path d="M167.302 10.3247H172.975V29.5598H167.302V10.3247Z" fill="white"/>
<path d="M189.754 29.5598L185.595 23.4545L181.436 29.5598H174.939L182.087 19.8992L175.286 10.3247H181.872L185.727 16.2194L189.757 10.3247H196.21L189.149 19.7747L196.425 29.5598H189.754Z" fill="white"/>
<path d="M147.244 23.9555C146.725 24.2491 145.64 25.0023 143.951 25.0023C141.914 25.0023 140.443 24.1661 140.443 21.9066V14.9236H147.849V10.3246H140.443V3.71826H134.942V10.3342H131.834C133.699 12.5523 134.77 15.514 134.77 18.9417V22.4555C134.77 27.2651 137.759 29.9395 142.655 29.9395C146.424 29.9395 148.417 28.5608 149.194 28.0151L147.244 23.9587V23.9555Z" fill="white"/>
<path d="M170.137 7.30836C172.195 7.30836 173.863 5.69802 173.863 3.71155C173.863 1.72509 172.195 0.114746 170.137 0.114746C168.079 0.114746 166.411 1.72509 166.411 3.71155C166.411 5.69802 168.079 7.30836 170.137 7.30836Z" fill="white"/>
<path d="M198.985 10.3345V10.577H198.403V11.9334H198.092V10.577H197.513V10.3345H198.985Z" fill="white"/>
<path d="M199.615 10.3345L200.22 11.3972L200.825 10.3345H201.189V11.9334H200.901V10.7398L200.32 11.7675H200.118L199.539 10.7398V11.9334H199.248V10.3345H199.615Z" fill="white"/>
</g>
</g>
<defs>
<clipPath id="clip0_6116_152">
<rect width="202" height="30" fill="white"/>
</clipPath>
<clipPath id="clip1_6116_152">
<rect width="202" height="30" fill="white"/>
</clipPath>
</defs>
</svg>
