<svg width="150" height="24" viewBox="0 0 150 24" fill="none" xmlns="http://www.w3.org/2000/svg">
<g clip-path="url(#clip0_3001_635)">
<g clip-path="url(#clip1_3001_635)">
<path d="M126.342 0.0917969H120.806C119.278 0.0917969 118.039 1.38007 118.039 2.96924V2.9718C118.039 4.56097 119.278 5.84924 120.806 5.84924H126.342C127.87 5.84924 129.109 4.56097 129.109 2.9718V2.96924C129.109 1.38007 127.87 0.0917969 126.342 0.0917969Z" fill="#25E2CC"/>
<path d="M0.90625 15.9521C0.90625 11.4686 4.41198 7.95801 9.04455 7.95801C11.9709 7.95801 13.6133 9.0278 14.4799 9.66354L12.7761 12.975C12.101 12.5078 11.0724 11.9384 9.52818 11.9384C6.95535 11.9384 5.21722 13.6108 5.21722 15.9521C5.21722 18.2933 6.92098 19.9657 9.46435 19.9657C11.1043 19.9657 12.101 19.3963 12.7786 18.9291L14.4504 22.2074C13.5495 22.8099 11.9734 23.9461 9.047 23.9461C4.31869 23.9461 0.908705 20.4661 0.908705 15.9521H0.90625Z" fill="#003D5B"/>
<path d="M15.1777 15.9521C15.1777 11.4023 18.7473 7.95801 23.1859 7.95801C27.6245 7.95801 31.1941 11.4048 31.1941 15.9521C31.1941 20.4993 27.6245 23.9461 23.1859 23.9461C18.7473 23.9461 15.1777 20.4993 15.1777 15.9521ZM26.9494 15.9521C26.9494 13.7435 25.3414 11.9384 23.1859 11.9384C21.0304 11.9384 19.4224 13.7461 19.4224 15.9521C19.4224 18.158 21.0623 19.9657 23.1859 19.9657C25.3095 19.9657 26.9494 18.1938 26.9494 15.9521Z" fill="#003D5B"/>
<path d="M48.463 15.1503V23.6474H44.2503V15.7529C44.2503 13.4116 42.9319 11.9052 41.0023 11.9052C38.8788 11.9052 37.5604 13.5776 37.5604 15.6176V23.6474H33.3477V8.25928H36.3722L36.5318 10.8686C37.4008 9.26269 39.2666 7.95801 41.9671 7.95801C45.9246 7.95801 48.4655 10.7691 48.4655 15.1503H48.463Z" fill="#003D5B"/>
<path d="M50.4141 15.9521C50.4141 11.4686 53.9198 7.95801 58.5524 7.95801C61.4787 7.95801 63.1211 9.0278 63.9877 9.66354L62.2839 12.975C61.6088 12.5078 60.5802 11.9384 59.036 11.9384C56.4632 11.9384 54.725 13.6108 54.725 15.9521C54.725 18.2933 56.4288 19.9657 58.9722 19.9657C60.6121 19.9657 61.6088 19.3963 62.2864 18.9291L63.9582 22.2074C63.0573 22.8099 61.4812 23.9461 58.5548 23.9461C53.8265 23.9461 50.4165 20.4661 50.4165 15.9521H50.4141Z" fill="#003D5B"/>
<path d="M79.7433 17.1575H68.8701C69.3538 18.9294 70.9937 20.2699 73.3088 20.2699C75.4642 20.2699 76.5886 19.2333 77.2318 18.6971L78.97 21.8426C78.069 22.6801 76.2351 23.949 72.857 23.949C68.1606 23.949 64.7188 20.469 64.7188 15.955C64.7188 11.4409 67.9029 7.96094 72.4397 7.96094C76.9765 7.96094 79.8047 11.372 79.8047 15.9907C79.8047 16.5601 79.7408 17.1626 79.7408 17.1626L79.7433 17.1575ZM68.9045 14.3465H75.7883C75.5944 12.6077 74.276 11.4358 72.6042 11.4358C70.7703 11.4358 69.3881 12.4392 68.9045 14.3465Z" fill="#003D5B"/>
<path d="M97.0373 15.1503V23.6474H92.8245V15.7529C92.8245 13.4116 91.5062 11.9052 89.5765 11.9052C87.453 11.9052 86.1346 13.5776 86.1346 15.6176V23.6474H81.9219V8.25928H84.9464L85.106 10.8686C85.9751 9.26269 87.8409 7.95801 90.5414 7.95801C94.4988 7.95801 97.0397 10.7691 97.0397 15.1503H97.0373Z" fill="#003D5B"/>
<path d="M122.28 8.09077L121.926 12.4389C121.509 12.2703 121.121 12.1376 120.446 12.1376C118.099 12.1376 116.65 13.7435 116.65 15.9189V23.6474H112.438V8.25928H115.943L116.105 11.2695C116.621 9.39545 118.452 7.95801 120.996 7.95801C121.445 7.95801 121.897 7.9912 122.282 8.09077H122.28Z" fill="#003D5B"/>
<path d="M124.234 8.25977H128.447V23.6479H124.234V8.25977Z" fill="#003D5B"/>
<path d="M140.907 23.6479L137.819 18.7636L134.73 23.6479H129.906L135.214 15.9193L130.164 8.25977H135.054L137.917 12.9755L140.91 8.25977H145.702L140.458 15.8198L145.861 23.6479H140.907Z" fill="#003D5B"/>
<path d="M109.341 19.1644C108.956 19.3993 108.15 20.0018 106.896 20.0018C105.384 20.0018 104.291 19.3329 104.291 17.5252V11.9389H109.79V8.25972H104.291V2.97461H100.206V8.26737H97.8984C99.2831 10.0418 100.078 12.4112 100.078 15.1533V17.9644C100.078 21.8121 102.298 23.9516 105.934 23.9516C108.732 23.9516 110.213 22.8487 110.79 22.4121L109.341 19.167V19.1644Z" fill="#003D5B"/>
<path d="M126.341 5.84669C127.869 5.84669 129.108 4.55841 129.108 2.96924C129.108 1.38007 127.869 0.0917969 126.341 0.0917969C124.813 0.0917969 123.574 1.38007 123.574 2.96924C123.574 4.55841 124.813 5.84669 126.341 5.84669Z" fill="#003D5B"/>
<path d="M147.76 8.26758V8.46162H147.328V9.54673H147.098V8.46162H146.668V8.26758H147.76Z" fill="#003D5B"/>
<path d="M148.23 8.26758L148.679 9.11779L149.128 8.26758H149.398V9.54673H149.185V8.59183L148.752 9.41396H148.603L148.173 8.59183V9.54673H147.957V8.26758H148.23Z" fill="#003D5B"/>
</g>
</g>
<defs>
<clipPath id="clip0_3001_635">
<rect width="150" height="24" fill="white"/>
</clipPath>
<clipPath id="clip1_3001_635">
<rect width="150" height="24" fill="white"/>
</clipPath>
</defs>
</svg>
