<svg width="42" height="42" viewBox="0 0 42 42" fill="none" xmlns="http://www.w3.org/2000/svg">
<g clip-path="url(#clip0_20_1182)">
<path d="M19.8996 20.1227V24.4002H18.5547V13.8376H22.12C22.5454 13.8288 22.9684 13.9049 23.3641 14.0615C23.7598 14.218 24.1202 14.4519 24.4244 14.7495C24.7296 15.036 24.9729 15.3821 25.1392 15.7663C25.3055 16.1505 25.3913 16.5648 25.3913 16.9834C25.3913 17.4021 25.3055 17.8163 25.1392 18.2005C24.9729 18.5847 24.7296 18.9308 24.4244 19.2173C24.1192 19.5126 23.7583 19.7442 23.3626 19.8983C22.9669 20.0525 22.5445 20.1262 22.12 20.1152H19.8996V20.1227ZM19.8996 15.1387V18.8216H22.148C22.3913 18.8237 22.6326 18.7778 22.8582 18.6866C23.0837 18.5953 23.289 18.4605 23.4624 18.2898C23.6358 18.1191 23.7737 17.9159 23.8685 17.6918C23.9633 17.4677 24.013 17.2272 24.0147 16.9839C24.0155 16.7453 23.9681 16.509 23.8754 16.2891C23.7827 16.0692 23.6466 15.8703 23.4752 15.7043C23.3065 15.5209 23.1003 15.376 22.8707 15.2794C22.6411 15.1828 22.3933 15.1367 22.1443 15.1443H19.8959L19.8996 15.1387Z" fill="#004955"/>
<path d="M28.9104 16.934C29.7699 16.8862 30.6142 17.1751 31.2643 17.7395C31.5563 18.0248 31.7841 18.3691 31.9327 18.7494C32.0812 19.1297 32.1471 19.5372 32.1258 19.945V24.4007H30.8442V23.3964H30.7882C30.5585 23.7787 30.2326 24.0941 29.8431 24.3113C29.4535 24.5284 29.0138 24.6397 28.5679 24.634C27.8414 24.6583 27.1328 24.4058 26.5854 23.9275C26.3297 23.7103 26.1255 23.4391 25.9873 23.1334C25.8491 22.8277 25.7806 22.4952 25.7866 22.1598C25.7742 21.8173 25.844 21.4768 25.9901 21.1669C26.1362 20.8569 26.3545 20.5864 26.6265 20.378C27.2752 19.9068 28.0658 19.6723 28.8665 19.7135C29.5504 19.6861 30.2294 19.8397 30.835 20.1587V19.8479C30.8374 19.619 30.789 19.3925 30.6933 19.1846C30.5976 18.9768 30.4569 18.7927 30.2815 18.6458C29.9251 18.3199 29.4575 18.1429 28.9748 18.1511C28.6203 18.1428 28.2698 18.2272 27.9578 18.3958C27.6459 18.5644 27.3832 18.8114 27.1958 19.1124L26.0124 18.3658C26.3304 17.8969 26.7646 17.5185 27.2725 17.2676C27.7805 17.0167 28.3448 16.9017 28.9104 16.934ZM27.1735 22.1794C27.1716 22.3519 27.2114 22.5222 27.2894 22.6761C27.3674 22.8299 27.4813 22.9627 27.6215 23.0632C27.918 23.2982 28.2867 23.4232 28.6649 23.417C28.9467 23.4166 29.2256 23.3601 29.4854 23.2508C29.7451 23.1415 29.9805 22.9816 30.1778 22.7804C30.3875 22.5923 30.5551 22.362 30.6698 22.1047C30.7844 21.8474 30.8435 21.5688 30.8433 21.2871C30.3336 20.9259 29.7161 20.7488 29.0924 20.785C28.6064 20.7681 28.1277 20.9067 27.726 21.1807C27.5589 21.289 27.421 21.4367 27.3245 21.6109C27.2279 21.785 27.1767 21.9803 27.1735 22.1794Z" fill="#004955"/>
<path d="M39.437 17.168L34.9569 27.5746H33.57L35.237 23.9346L32.2773 17.168H33.7417L35.8716 22.3573H35.8996L37.9735 17.168H39.437Z" fill="#004955"/>
<path d="M14.551 19.2594C14.5515 18.8326 14.514 18.4065 14.439 17.9863H8.80078V20.3197H12.0479C11.986 20.6985 11.8472 21.0607 11.64 21.3839C11.4327 21.707 11.1615 21.9842 10.8429 22.1985V23.7123H12.7759C13.3641 23.1336 13.8256 22.4389 14.1312 21.6723C14.4367 20.9058 14.5797 20.0841 14.551 19.2594Z" fill="#4285F4"/>
<path d="M10.8465 22.1992C10.3806 22.5011 9.85164 22.6919 9.30035 22.7568C8.74905 22.8217 8.19022 22.759 7.66701 22.5735C7.14381 22.3881 6.67024 22.0848 6.28291 21.6872C5.89557 21.2895 5.60482 20.8082 5.43314 20.2803H3.44141V21.838C3.9365 22.8379 4.70074 23.6798 5.64816 24.2691C6.59558 24.8584 7.6886 25.1717 8.80434 25.1738C10.2681 25.2149 11.6914 24.6904 12.7785 23.7094L10.8465 22.1992Z" fill="#34A853"/>
<path d="M5.24591 19.1221C5.24584 18.7285 5.30888 18.3374 5.43259 17.9638V16.4023H3.43897C3.01921 17.2475 2.80078 18.1784 2.80078 19.1221C2.80078 20.0658 3.01921 20.9966 3.43897 21.8418L5.43259 20.2813C5.30878 19.9074 5.24574 19.516 5.24591 19.1221Z" fill="#FABB05"/>
<path d="M8.80246 15.4635C9.65981 15.4501 10.4876 15.7766 11.105 16.3716L12.8177 14.644C11.736 13.616 10.2965 13.0499 8.80434 13.0658C7.68863 13.0679 6.59562 13.3813 5.64822 13.9705C4.70082 14.5598 3.93658 15.4017 3.44141 16.4015L5.43499 17.962C5.66423 17.2455 6.11249 16.619 6.71662 16.1708C7.32075 15.7226 8.0503 15.4752 8.80246 15.4635Z" fill="#E94235"/>
</g>
<defs>
<clipPath id="clip0_20_1182">
<rect width="36.6389" height="14.5068" fill="white" transform="translate(2.80078 13.0664)"/>
</clipPath>
</defs>
</svg>
