<svg width="48" height="48" viewBox="0 0 48 48" fill="none" xmlns="http://www.w3.org/2000/svg">
<path d="M24 44.4909C35.19 44.4909 44.4909 35.2097 44.4909 24C44.4909 12.81 35.1694 3.50916 23.9794 3.50916C12.7706 3.50916 3.51001 12.81 3.51001 24C3.51001 35.2097 12.7903 44.4909 24 44.4909ZM24.0009 41.076C14.5174 41.076 6.94287 33.4817 6.94287 24C6.94287 14.5372 14.4969 6.92401 23.9794 6.92401C33.4414 6.92401 41.0546 14.538 41.0752 24C41.0949 33.4826 33.4612 41.076 23.9992 41.076M19.1777 28.7417C23.8577 33.4423 29.8252 36.4149 33.3609 32.8989C33.4861 32.7754 33.6003 32.6412 33.702 32.4977C34.626 31.4734 34.8874 30.1072 33.702 29.2234C32.778 28.56 31.794 27.8777 30.126 26.712C28.9612 25.8892 28.1974 26.0889 27.294 26.9932L26.49 27.7766C26.2492 27.9977 25.8677 27.978 25.6063 27.8169C24.9034 27.3952 23.718 26.4506 22.5926 25.326C21.4877 24.2203 20.484 22.9757 20.1017 22.3123C19.9612 22.0912 19.8609 21.7294 20.142 21.4689L20.9254 20.6246C21.8297 19.6809 22.0303 18.9574 21.1869 17.772L18.7157 14.2766C17.8714 13.0912 16.6466 13.3123 15.3 14.3169C15.1997 14.3974 15.12 14.478 15.0394 14.5577C11.5037 18.0934 14.4969 24.06 19.1777 28.7409" fill="black"/>
</svg>
