<svg width="42" height="42" viewBox="0 0 42 42" fill="none" xmlns="http://www.w3.org/2000/svg">
<path fill-rule="evenodd" clip-rule="evenodd" d="M3.87841 24.6546C4.41167 24.6546 4.91345 24.4426 5.2908 24.0573L7.32995 21.975C7.47313 21.8282 7.72253 21.8288 7.86571 21.975L9.91274 24.0653C10.2901 24.4501 10.7914 24.6621 11.3251 24.6621H11.7266L9.1438 27.2996C8.33747 28.1235 7.02987 28.1235 6.22304 27.2996L3.63292 24.6546H3.87841ZM11.325 17.2886C10.7918 17.2886 10.29 17.5006 9.91263 17.8859L7.86611 19.9763C7.71852 20.1264 7.47792 20.1275 7.33035 19.9757L5.29072 17.8934C4.91337 17.5081 4.41207 17.2961 3.87833 17.2961H3.63281L6.22296 14.6511C7.02977 13.8272 8.33737 13.8272 9.14417 14.6511L11.7269 17.2886H11.325Z" fill="#4BB8A9"/>
<path fill-rule="evenodd" clip-rule="evenodd" d="M1.53398 19.5455L3.06473 17.9743H3.90332C4.26844 17.9743 4.62574 18.1261 4.88397 18.3912L6.90726 20.4678C7.09662 20.6622 7.34508 20.7594 7.59404 20.7594C7.84248 20.7594 8.09144 20.6621 8.28033 20.4683L10.3114 18.3836C10.5696 18.1186 10.9269 17.9668 11.292 17.9668H12.2854L13.8234 19.5455C14.6239 20.3671 14.6239 21.6987 13.8234 22.5203L12.2854 24.099H11.292C10.9269 24.099 10.5695 23.9473 10.3113 23.6822L8.28078 21.5975C7.91371 21.2213 7.27375 21.2213 6.9072 21.5981L4.88391 23.6742C4.62569 23.9392 4.26838 24.0915 3.90326 24.0915H3.06473L1.53398 22.5203C0.733465 21.6987 0.733465 20.3671 1.53398 19.5454" fill="#4BB8A9"/>
<g clip-path="url(#clip0_20_1176)">
<path d="M18.8185 27.3055C18.5614 27.3055 18.3594 27.098 18.3594 26.834V18.9505C18.3594 17.2531 19.6908 15.8669 21.3529 15.8574H23.6026C25.2555 15.8669 26.5961 17.2531 26.587 18.9505V20.629C26.5961 22.3264 25.2555 23.7221 23.6026 23.7315H20.4255C20.1683 23.7315 19.9663 23.524 19.9663 23.26C19.9663 22.996 20.1683 22.7885 20.4255 22.7885H23.6026C24.7504 22.7885 25.6779 21.8172 25.6687 20.629V18.9505C25.6687 17.7717 24.7413 16.8099 23.6026 16.8004H21.3621C20.2143 16.8004 19.2868 17.7717 19.2868 18.9505V26.834C19.2868 27.098 19.0848 27.3055 18.8277 27.3055H18.8185Z" fill="#004955"/>
<path d="M28.7631 23.7598C28.506 23.7598 28.304 23.5523 28.304 23.2883V17.4039C28.304 17.0739 28.0468 16.8004 27.7254 16.8004H26.7521C26.495 16.8004 26.293 16.593 26.293 16.3289C26.293 16.0649 26.495 15.8574 26.7521 15.8574H27.7254C28.5611 15.8574 29.2314 16.5552 29.2222 17.4134V23.2977C29.2222 23.5618 29.0202 23.7692 28.7631 23.7692V23.7598Z" fill="#004955"/>
<path d="M28.5508 15.4142L28.11 14.9521C27.9998 14.8389 27.9998 14.6503 28.11 14.5372L28.5508 14.0751C28.6518 13.9619 28.8262 13.9619 28.9364 14.0751L29.3772 14.5372C29.4874 14.6503 29.4874 14.8389 29.3772 14.9521L28.9364 15.4142C28.8354 15.5273 28.6609 15.5273 28.5508 15.4142Z" fill="#32BCAD"/>
<path d="M40.6099 22.7602H39.8294C39.4529 22.7602 39.0948 22.5999 38.8285 22.3359L36.5696 19.9878C36.4869 19.9029 36.3951 19.8369 36.2941 19.7803C36.3768 19.7332 36.4502 19.686 36.4961 19.6294C36.5237 19.6106 36.5512 19.5823 36.5696 19.5634L38.8193 17.2342C39.0856 16.9607 39.4346 16.8099 39.811 16.8099H40.5916C40.8487 16.8099 41.0507 16.6024 41.0507 16.3384C41.0507 16.0743 40.8487 15.8669 40.5916 15.8669H39.8019C39.1774 15.8669 38.5898 16.1215 38.1582 16.5741L35.8993 18.9128C35.8442 18.9693 35.7707 18.9976 35.6972 18.9976C35.6238 18.9976 35.5503 18.9693 35.4952 18.9128L33.2363 16.5647C32.8047 16.1215 32.1987 15.8574 31.5835 15.8574H30.6193C30.3622 15.8574 30.1602 16.0649 30.1602 16.3289C30.1602 16.593 30.3622 16.8004 30.6193 16.8004H31.5835C31.9691 16.8381 32.3181 16.9513 32.5844 17.2248L34.8433 19.5729C34.9351 19.6672 35.0453 19.7332 35.1555 19.7897C35.0453 19.8463 34.9351 19.9123 34.8433 20.0066L32.5844 22.3453C32.3181 22.6188 31.9599 22.7696 31.5835 22.7696H30.6193C30.3622 22.7696 30.1602 22.9771 30.1602 23.2411C30.1602 23.5052 30.3622 23.7126 30.6193 23.7126H31.5835C32.1987 23.7126 32.8047 23.458 33.2363 23.0054L35.4952 20.6667C35.5503 20.6102 35.6238 20.5819 35.6972 20.5819C35.7707 20.5819 35.8442 20.6102 35.8993 20.6667L38.149 22.996C38.5806 23.4486 39.1866 23.7032 39.8019 23.7032H40.5824C40.8395 23.7032 41.0415 23.4958 41.0415 23.2317C41.0415 22.9677 40.8395 22.7602 40.5824 22.7602H40.6099Z" fill="#004955"/>
</g>
<defs>
<clipPath id="clip0_20_1176">
<rect width="22.7085" height="13.3058" fill="white" transform="translate(18.3594 14)"/>
</clipPath>
</defs>
</svg>
