<svg width="25" height="20" viewBox="0 0 25 20" fill="none" xmlns="http://www.w3.org/2000/svg">
<path d="M14.6094 9.5L21.0938 16.0234C21.2891 16.2188 21.2891 16.4922 21.0938 16.6875C19.8047 17.9766 17.7344 17.9766 16.4453 16.6875L11.9531 12.1562L10.9766 13.1328C11.1328 13.5625 11.25 14.0312 11.25 14.5C11.25 16.6094 9.57031 18.25 7.5 18.25C5.39062 18.25 3.75 16.6094 3.75 14.5C3.75 12.4297 5.39062 10.75 7.5 10.75C7.65625 10.75 7.8125 10.7891 8.00781 10.7891L9.29688 9.5L8.00781 8.25C7.8125 8.25 7.65625 8.25 7.5 8.25C5.39062 8.25 3.75 6.60938 3.75 4.5C3.75 2.42969 5.39062 0.75 7.5 0.75C9.57031 0.75 11.25 2.42969 11.25 4.5C11.25 5.00781 11.1328 5.47656 10.9766 5.90625L11.9531 6.88281L16.4453 2.35156C17.7344 1.0625 19.8047 1.0625 21.0938 2.35156C21.2891 2.54688 21.2891 2.82031 21.0938 3.01562L14.6094 9.5ZM7.5 5.75C8.16406 5.75 8.75 5.20312 8.75 4.5C8.75 3.83594 8.16406 3.25 7.5 3.25C6.79688 3.25 6.25 3.83594 6.25 4.5C6.25 5.20312 6.79688 5.75 7.5 5.75ZM7.5 15.75C8.16406 15.75 8.75 15.2031 8.75 14.5C8.75 13.8359 8.16406 13.25 7.5 13.25C6.79688 13.25 6.25 13.8359 6.25 14.5C6.25 15.2031 6.79688 15.75 7.5 15.75Z" fill="black"/>
</svg>
